<mxfile host="app.diagrams.net" modified="2023-08-31T23:40:56.476Z" agent="Mozilla/5.0 (Macintosh; Intel Mac OS X 10_15_7) AppleWebKit/537.36 (KHTML, like Gecko) Chrome/116.0.0.0 Safari/537.36" etag="pF1Q1HP6j_bPrLszzUnF" version="21.6.9" type="github">
  <diagram name="Página-1" id="DO2lhwMJtu9jsgmC79DK">
    <mxGraphModel dx="952" dy="1063" grid="1" gridSize="10" guides="1" tooltips="1" connect="1" arrows="1" fold="1" page="1" pageScale="1" pageWidth="827" pageHeight="1169" math="0" shadow="0">
      <root>
        <mxCell id="0" />
        <mxCell id="1" parent="0" />
        <mxCell id="EYUcIrl1cW4uV3NCiwfl-2" value="Cliente" style="swimlane;childLayout=stackLayout;horizontal=1;startSize=50;horizontalStack=0;rounded=1;fontSize=14;fontStyle=0;strokeWidth=2;resizeParent=0;resizeLast=1;shadow=0;dashed=0;align=center;arcSize=4;whiteSpace=wrap;html=1;" vertex="1" parent="1">
          <mxGeometry x="320" y="200" width="200" height="110" as="geometry" />
        </mxCell>
        <mxCell id="EYUcIrl1cW4uV3NCiwfl-3" value="+ ID&lt;br&gt;+ Nome&lt;br&gt;+ Telefone" style="align=left;strokeColor=none;fillColor=none;spacingLeft=4;fontSize=12;verticalAlign=top;resizable=0;rotatable=0;part=1;html=1;" vertex="1" parent="EYUcIrl1cW4uV3NCiwfl-2">
          <mxGeometry y="50" width="200" height="60" as="geometry" />
        </mxCell>
        <mxCell id="EYUcIrl1cW4uV3NCiwfl-30" style="edgeStyle=orthogonalEdgeStyle;rounded=0;orthogonalLoop=1;jettySize=auto;html=1;exitX=0.5;exitY=1;exitDx=0;exitDy=0;" edge="1" parent="EYUcIrl1cW4uV3NCiwfl-2" source="EYUcIrl1cW4uV3NCiwfl-3" target="EYUcIrl1cW4uV3NCiwfl-3">
          <mxGeometry relative="1" as="geometry" />
        </mxCell>
        <mxCell id="EYUcIrl1cW4uV3NCiwfl-33" style="edgeStyle=orthogonalEdgeStyle;rounded=0;orthogonalLoop=1;jettySize=auto;html=1;exitX=0.5;exitY=1;exitDx=0;exitDy=0;" edge="1" parent="EYUcIrl1cW4uV3NCiwfl-2" source="EYUcIrl1cW4uV3NCiwfl-3" target="EYUcIrl1cW4uV3NCiwfl-3">
          <mxGeometry relative="1" as="geometry" />
        </mxCell>
        <mxCell id="EYUcIrl1cW4uV3NCiwfl-4" value="Veículo" style="swimlane;childLayout=stackLayout;horizontal=1;startSize=50;horizontalStack=0;rounded=1;fontSize=14;fontStyle=0;strokeWidth=2;resizeParent=0;resizeLast=1;shadow=0;dashed=0;align=center;arcSize=4;whiteSpace=wrap;html=1;" vertex="1" parent="1">
          <mxGeometry x="40" y="400" width="190" height="120" as="geometry" />
        </mxCell>
        <mxCell id="EYUcIrl1cW4uV3NCiwfl-5" value="+ ID&lt;br&gt;+ Placa&lt;br&gt;+ Modelo&lt;br&gt;+ Proprietário&lt;br&gt;" style="align=left;strokeColor=none;fillColor=none;spacingLeft=4;fontSize=12;verticalAlign=top;resizable=0;rotatable=0;part=1;html=1;" vertex="1" parent="EYUcIrl1cW4uV3NCiwfl-4">
          <mxGeometry y="50" width="190" height="70" as="geometry" />
        </mxCell>
        <mxCell id="EYUcIrl1cW4uV3NCiwfl-13" value="Vaga" style="swimlane;childLayout=stackLayout;horizontal=1;startSize=50;horizontalStack=0;rounded=1;fontSize=14;fontStyle=0;strokeWidth=2;resizeParent=0;resizeLast=1;shadow=0;dashed=0;align=center;arcSize=4;whiteSpace=wrap;html=1;" vertex="1" parent="1">
          <mxGeometry x="630" y="400" width="170" height="120" as="geometry" />
        </mxCell>
        <mxCell id="EYUcIrl1cW4uV3NCiwfl-14" value="+ ID&lt;br&gt;+ Número" style="align=left;strokeColor=none;fillColor=none;spacingLeft=4;fontSize=12;verticalAlign=top;resizable=0;rotatable=0;part=1;html=1;" vertex="1" parent="EYUcIrl1cW4uV3NCiwfl-13">
          <mxGeometry y="50" width="170" height="70" as="geometry" />
        </mxCell>
        <mxCell id="EYUcIrl1cW4uV3NCiwfl-51" style="edgeStyle=orthogonalEdgeStyle;rounded=0;orthogonalLoop=1;jettySize=auto;html=1;" edge="1" parent="1" source="EYUcIrl1cW4uV3NCiwfl-15" target="EYUcIrl1cW4uV3NCiwfl-49">
          <mxGeometry relative="1" as="geometry" />
        </mxCell>
        <mxCell id="EYUcIrl1cW4uV3NCiwfl-15" value="Estacionamento" style="swimlane;childLayout=stackLayout;horizontal=1;startSize=50;horizontalStack=0;rounded=1;fontSize=14;fontStyle=0;strokeWidth=2;resizeParent=0;resizeLast=1;shadow=0;dashed=0;align=center;arcSize=4;whiteSpace=wrap;html=1;" vertex="1" parent="1">
          <mxGeometry x="340" y="30" width="160" height="90" as="geometry" />
        </mxCell>
        <mxCell id="EYUcIrl1cW4uV3NCiwfl-16" value="+ ID&lt;br&gt;+ Nome&lt;br&gt;" style="align=left;strokeColor=none;fillColor=none;spacingLeft=4;fontSize=12;verticalAlign=top;resizable=0;rotatable=0;part=1;html=1;" vertex="1" parent="EYUcIrl1cW4uV3NCiwfl-15">
          <mxGeometry y="50" width="160" height="40" as="geometry" />
        </mxCell>
        <mxCell id="EYUcIrl1cW4uV3NCiwfl-17" value="Registro de Entrada" style="swimlane;childLayout=stackLayout;horizontal=1;startSize=50;horizontalStack=0;rounded=1;fontSize=14;fontStyle=0;strokeWidth=2;resizeParent=0;resizeLast=1;shadow=0;dashed=0;align=center;arcSize=4;whiteSpace=wrap;html=1;" vertex="1" parent="1">
          <mxGeometry x="350" y="800" width="160" height="120" as="geometry" />
        </mxCell>
        <mxCell id="EYUcIrl1cW4uV3NCiwfl-18" value="+ ID&lt;br&gt;+ Veículo&lt;br&gt;+ Vaga&lt;br&gt;+ Data e Hora de Entrada" style="align=left;strokeColor=none;fillColor=none;spacingLeft=4;fontSize=12;verticalAlign=top;resizable=0;rotatable=0;part=1;html=1;" vertex="1" parent="EYUcIrl1cW4uV3NCiwfl-17">
          <mxGeometry y="50" width="160" height="70" as="geometry" />
        </mxCell>
        <mxCell id="EYUcIrl1cW4uV3NCiwfl-21" value="" style="endArrow=none;html=1;rounded=0;" edge="1" parent="1" source="EYUcIrl1cW4uV3NCiwfl-13" target="EYUcIrl1cW4uV3NCiwfl-17">
          <mxGeometry relative="1" as="geometry">
            <mxPoint x="625" y="520" as="sourcePoint" />
            <mxPoint x="480" y="640" as="targetPoint" />
            <Array as="points" />
          </mxGeometry>
        </mxCell>
        <mxCell id="EYUcIrl1cW4uV3NCiwfl-22" value="N" style="resizable=0;html=1;whiteSpace=wrap;align=right;verticalAlign=bottom;" connectable="0" vertex="1" parent="EYUcIrl1cW4uV3NCiwfl-21">
          <mxGeometry x="1" relative="1" as="geometry" />
        </mxCell>
        <mxCell id="EYUcIrl1cW4uV3NCiwfl-23" value="" style="endArrow=none;html=1;rounded=0;exitX=0.5;exitY=1;exitDx=0;exitDy=0;entryX=0.5;entryY=0;entryDx=0;entryDy=0;" edge="1" parent="1" source="EYUcIrl1cW4uV3NCiwfl-16" target="EYUcIrl1cW4uV3NCiwfl-2">
          <mxGeometry relative="1" as="geometry">
            <mxPoint x="475" y="160" as="sourcePoint" />
            <mxPoint x="410" y="250" as="targetPoint" />
            <Array as="points" />
          </mxGeometry>
        </mxCell>
        <mxCell id="EYUcIrl1cW4uV3NCiwfl-24" value="N" style="resizable=0;html=1;whiteSpace=wrap;align=right;verticalAlign=bottom;" connectable="0" vertex="1" parent="EYUcIrl1cW4uV3NCiwfl-23">
          <mxGeometry x="1" relative="1" as="geometry" />
        </mxCell>
        <mxCell id="EYUcIrl1cW4uV3NCiwfl-25" value="" style="edgeStyle=entityRelationEdgeStyle;fontSize=12;html=1;endArrow=ERzeroToMany;startArrow=ERmandOne;rounded=0;entryX=0.5;entryY=0;entryDx=0;entryDy=0;exitX=1;exitY=0.5;exitDx=0;exitDy=0;" edge="1" parent="1" source="EYUcIrl1cW4uV3NCiwfl-15" target="EYUcIrl1cW4uV3NCiwfl-13">
          <mxGeometry width="100" height="100" relative="1" as="geometry">
            <mxPoint x="605" as="sourcePoint" />
            <mxPoint x="635" y="375" as="targetPoint" />
            <Array as="points">
              <mxPoint x="725" y="315" />
              <mxPoint x="695" y="270" />
            </Array>
          </mxGeometry>
        </mxCell>
        <mxCell id="EYUcIrl1cW4uV3NCiwfl-26" value="" style="endArrow=none;html=1;rounded=0;entryX=0.561;entryY=0.014;entryDx=0;entryDy=0;entryPerimeter=0;" edge="1" parent="1" source="EYUcIrl1cW4uV3NCiwfl-2" target="EYUcIrl1cW4uV3NCiwfl-4">
          <mxGeometry relative="1" as="geometry">
            <mxPoint x="330" y="320" as="sourcePoint" />
            <mxPoint x="185" y="440" as="targetPoint" />
            <Array as="points" />
          </mxGeometry>
        </mxCell>
        <mxCell id="EYUcIrl1cW4uV3NCiwfl-27" value="N" style="resizable=0;html=1;whiteSpace=wrap;align=right;verticalAlign=bottom;" connectable="0" vertex="1" parent="EYUcIrl1cW4uV3NCiwfl-26">
          <mxGeometry x="1" relative="1" as="geometry" />
        </mxCell>
        <mxCell id="EYUcIrl1cW4uV3NCiwfl-28" value="" style="endArrow=none;html=1;rounded=0;" edge="1" parent="1" source="EYUcIrl1cW4uV3NCiwfl-4" target="EYUcIrl1cW4uV3NCiwfl-17">
          <mxGeometry relative="1" as="geometry">
            <mxPoint x="190" y="550" as="sourcePoint" />
            <mxPoint x="190" y="640" as="targetPoint" />
            <Array as="points" />
          </mxGeometry>
        </mxCell>
        <mxCell id="EYUcIrl1cW4uV3NCiwfl-29" value="N" style="resizable=0;html=1;whiteSpace=wrap;align=right;verticalAlign=bottom;" connectable="0" vertex="1" parent="EYUcIrl1cW4uV3NCiwfl-28">
          <mxGeometry x="1" relative="1" as="geometry" />
        </mxCell>
        <mxCell id="EYUcIrl1cW4uV3NCiwfl-34" value="Funcionário" style="swimlane;childLayout=stackLayout;horizontal=1;startSize=50;horizontalStack=0;rounded=1;fontSize=14;fontStyle=0;strokeWidth=2;resizeParent=0;resizeLast=1;shadow=0;dashed=0;align=center;arcSize=4;whiteSpace=wrap;html=1;" vertex="1" parent="1">
          <mxGeometry x="350" y="360" width="160" height="105" as="geometry" />
        </mxCell>
        <mxCell id="EYUcIrl1cW4uV3NCiwfl-35" value="+ ID&lt;br&gt;+ Nome&lt;br&gt;+ Turno" style="align=left;strokeColor=none;fillColor=none;spacingLeft=4;fontSize=12;verticalAlign=top;resizable=0;rotatable=0;part=1;html=1;" vertex="1" parent="EYUcIrl1cW4uV3NCiwfl-34">
          <mxGeometry y="50" width="160" height="55" as="geometry" />
        </mxCell>
        <mxCell id="EYUcIrl1cW4uV3NCiwfl-36" value="" style="endArrow=none;html=1;rounded=0;" edge="1" parent="1" source="EYUcIrl1cW4uV3NCiwfl-15" target="EYUcIrl1cW4uV3NCiwfl-34">
          <mxGeometry relative="1" as="geometry">
            <mxPoint x="273" y="150" as="sourcePoint" />
            <mxPoint x="240" y="320" as="targetPoint" />
            <Array as="points">
              <mxPoint x="170" y="270" />
            </Array>
          </mxGeometry>
        </mxCell>
        <mxCell id="EYUcIrl1cW4uV3NCiwfl-37" value="N" style="resizable=0;html=1;whiteSpace=wrap;align=right;verticalAlign=bottom;" connectable="0" vertex="1" parent="EYUcIrl1cW4uV3NCiwfl-36">
          <mxGeometry x="1" relative="1" as="geometry" />
        </mxCell>
        <mxCell id="EYUcIrl1cW4uV3NCiwfl-42" value="" style="endArrow=none;html=1;rounded=0;" edge="1" parent="1" source="EYUcIrl1cW4uV3NCiwfl-34" target="EYUcIrl1cW4uV3NCiwfl-17">
          <mxGeometry relative="1" as="geometry">
            <mxPoint x="369" y="520" as="sourcePoint" />
            <mxPoint x="458" y="605" as="targetPoint" />
            <Array as="points">
              <mxPoint x="720" y="620" />
            </Array>
          </mxGeometry>
        </mxCell>
        <mxCell id="EYUcIrl1cW4uV3NCiwfl-43" value="N" style="resizable=0;html=1;whiteSpace=wrap;align=right;verticalAlign=bottom;" connectable="0" vertex="1" parent="EYUcIrl1cW4uV3NCiwfl-42">
          <mxGeometry x="1" relative="1" as="geometry" />
        </mxCell>
        <mxCell id="EYUcIrl1cW4uV3NCiwfl-45" value="Gerente" style="swimlane;childLayout=stackLayout;horizontal=1;startSize=50;horizontalStack=0;rounded=1;fontSize=14;fontStyle=0;strokeWidth=2;resizeParent=0;resizeLast=1;shadow=0;dashed=0;align=center;arcSize=4;whiteSpace=wrap;html=1;" vertex="1" parent="1">
          <mxGeometry x="330" y="540" width="200" height="105" as="geometry" />
        </mxCell>
        <mxCell id="EYUcIrl1cW4uV3NCiwfl-46" value="+ ID&lt;br&gt;+ Nome&lt;br&gt;+ Turno" style="align=left;strokeColor=none;fillColor=none;spacingLeft=4;fontSize=12;verticalAlign=top;resizable=0;rotatable=0;part=1;html=1;" vertex="1" parent="EYUcIrl1cW4uV3NCiwfl-45">
          <mxGeometry y="50" width="200" height="55" as="geometry" />
        </mxCell>
        <mxCell id="EYUcIrl1cW4uV3NCiwfl-48" style="edgeStyle=orthogonalEdgeStyle;rounded=0;orthogonalLoop=1;jettySize=auto;html=1;" edge="1" parent="1" source="EYUcIrl1cW4uV3NCiwfl-35" target="EYUcIrl1cW4uV3NCiwfl-45">
          <mxGeometry relative="1" as="geometry" />
        </mxCell>
        <mxCell id="EYUcIrl1cW4uV3NCiwfl-49" value="Faturamento Mensal" style="swimlane;childLayout=stackLayout;horizontal=1;startSize=50;horizontalStack=0;rounded=1;fontSize=14;fontStyle=0;strokeWidth=2;resizeParent=0;resizeLast=1;shadow=0;dashed=0;align=center;arcSize=4;whiteSpace=wrap;html=1;" vertex="1" parent="1">
          <mxGeometry x="20" y="110" width="200" height="105" as="geometry" />
        </mxCell>
        <mxCell id="EYUcIrl1cW4uV3NCiwfl-50" value="+ ID&lt;br&gt;+ Valor&lt;br&gt;+ Mês / Ano" style="align=left;strokeColor=none;fillColor=none;spacingLeft=4;fontSize=12;verticalAlign=top;resizable=0;rotatable=0;part=1;html=1;" vertex="1" parent="EYUcIrl1cW4uV3NCiwfl-49">
          <mxGeometry y="50" width="200" height="55" as="geometry" />
        </mxCell>
        <mxCell id="EYUcIrl1cW4uV3NCiwfl-57" value="" style="edgeStyle=entityRelationEdgeStyle;fontSize=12;html=1;endArrow=ERzeroToMany;startArrow=ERmandOne;rounded=0;" edge="1" parent="1" source="EYUcIrl1cW4uV3NCiwfl-45" target="EYUcIrl1cW4uV3NCiwfl-50">
          <mxGeometry width="100" height="100" relative="1" as="geometry">
            <mxPoint x="270" y="590" as="sourcePoint" />
            <mxPoint x="370" y="490" as="targetPoint" />
          </mxGeometry>
        </mxCell>
      </root>
    </mxGraphModel>
  </diagram>
</mxfile>
